<svg width="1512" height="384" viewBox="0 0 1512 384" fill="none" xmlns="http://www.w3.org/2000/svg">
<path d="M153.683 486.427C124.71 486.427 98.4664 479.709 74.952 466.272C51.8576 452.415 33.5919 433.1 20.1552 408.326C6.71839 383.132 0 353.529 0 319.517C0 290.124 6.50844 262.621 19.5253 237.007C32.9621 211.393 51.6476 190.818 75.5819 175.282C99.5161 159.325 127.23 151.347 158.722 151.347C176.358 151.347 192.734 154.287 207.85 160.165C223.386 165.624 237.033 174.232 248.79 185.989C260.548 197.326 269.785 211.813 276.504 229.449C283.222 246.665 286.581 267.03 286.581 290.544L64.8745 294.323C64.8745 326.235 68.2336 354.369 74.952 378.723C82.0903 402.657 93.4276 421.343 108.964 434.779C124.5 447.796 144.445 454.305 168.8 454.305C181.816 454.305 195.043 451.995 208.48 447.376C222.337 442.758 235.144 436.459 246.901 428.481C258.658 420.503 268.106 411.685 275.244 402.027L290.36 414.624C279.023 432.26 265.376 446.327 249.42 456.824C233.464 467.322 217.088 474.88 200.292 479.499C183.496 484.118 167.96 486.427 153.683 486.427ZM66.764 267.869H227.376C227.376 252.753 225.066 238.267 220.447 224.41C216.248 210.133 209.11 198.586 199.032 189.768C188.955 180.53 175.728 175.912 159.352 175.912C134.998 175.912 114.633 183.26 98.2565 197.956C82.3003 212.233 71.8028 235.537 66.764 267.869Z" fill="#DADFE3"/>
<path d="M304.842 457.454C317.859 457.454 326.887 454.305 331.926 448.006C336.964 441.288 339.904 432.26 340.743 420.923C341.583 409.166 342.003 395.729 342.003 380.612V82.6939C342.003 75.9755 342.003 69.677 342.003 63.7984C342.423 57.4999 343.053 50.1517 343.893 41.7537C336.334 42.1736 328.776 42.5935 321.218 43.0134C314.08 43.4333 306.732 43.8532 299.173 44.2731V17.8194C317.649 17.8194 331.926 16.9796 342.003 15.3C352.501 13.6204 360.269 11.5209 365.308 9.00152C370.766 6.48213 374.965 3.75278 377.905 0.813477H396.17L396.8 409.585C396.8 417.983 396.59 425.542 396.17 432.26C395.75 438.559 394.91 445.277 393.651 452.415C400.369 451.995 406.878 451.785 413.176 451.785C419.894 451.365 426.613 450.946 433.331 450.526V476.349H304.842V457.454Z" fill="#DADFE3"/>
<path d="M444.959 457.454C457.976 457.454 467.004 454.305 472.042 448.006C477.081 441.288 480.02 432.26 480.86 420.923C481.7 409.166 482.12 395.729 482.12 380.612V82.6939C482.12 75.9755 482.12 69.677 482.12 63.7984C482.54 57.4999 483.17 50.1517 484.009 41.7537C476.451 42.1736 468.893 42.5935 461.335 43.0134C454.197 43.4333 446.848 43.8532 439.29 44.2731V17.8194C457.766 17.8194 472.042 16.9796 482.12 15.3C492.617 13.6204 500.386 11.5209 505.424 9.00152C510.883 6.48213 515.082 3.75278 518.021 0.813477H536.287L536.917 409.585C536.917 417.983 536.707 425.542 536.287 432.26C535.867 438.559 535.027 445.277 533.768 452.415C540.486 451.995 546.994 451.785 553.293 451.785C560.011 451.365 566.73 450.946 573.448 450.526V476.349H444.959V457.454Z" fill="#DADFE3"/>
<path d="M708.585 478.239L618.517 272.908C611.798 256.952 606.55 243.305 602.77 231.968C598.991 220.631 596.262 211.183 594.582 203.625C593.323 196.067 592.483 189.978 592.063 185.359L564.979 187.249V161.425H680.872V180.32C668.275 180.32 660.087 183.68 656.308 190.398C652.948 196.697 652.529 205.304 655.048 216.222C657.567 226.719 661.346 238.057 666.385 250.234L714.884 361.087C718.243 368.225 721.392 375.784 724.331 383.762C727.691 391.32 730.84 399.298 733.779 407.696H734.409C736.508 401.397 738.818 394.679 741.337 387.541C744.277 380.402 746.796 373.474 748.895 366.756L799.283 228.819C802.643 218.741 806.212 209.923 809.991 202.365C813.77 194.807 816.499 189.138 818.179 185.359L777.868 187.249V161.425H877.385V180.32C868.147 180.32 860.379 183.47 854.08 189.768C847.782 196.067 841.693 205.514 835.815 218.111C830.356 230.708 823.847 246.455 816.289 265.35L733.779 478.239H708.585Z" fill="#DADFE3"/>
<path d="M1028.55 486.427C999.155 486.427 972.492 479.709 948.558 466.272C924.623 452.415 905.518 433.52 891.241 409.585C877.385 385.231 870.456 357.518 870.456 326.445C870.456 293.273 877.385 263.461 891.241 237.007C905.098 210.553 923.994 189.768 947.928 174.652C971.862 159.116 998.736 151.347 1028.55 151.347C1057.94 151.347 1084.6 158.486 1108.54 172.762C1132.47 186.619 1151.58 205.514 1165.86 229.449C1180.13 253.383 1187.27 280.676 1187.27 311.329C1187.27 343.661 1180.13 373.264 1165.86 400.138C1152 426.591 1133.1 447.586 1109.17 463.123C1085.23 478.659 1058.36 486.427 1028.55 486.427ZM1033.59 461.233C1055.84 461.233 1073.48 454.935 1086.49 442.338C1099.51 429.741 1108.75 413.365 1114.21 393.209C1120.09 373.054 1123.03 351.849 1123.03 329.595C1123.03 310.699 1121.14 292.224 1117.36 274.168C1114 255.692 1108.54 239.106 1100.98 224.41C1093.42 209.294 1083.56 197.326 1071.38 188.508C1059.62 179.691 1045.34 175.282 1028.55 175.282C1006.71 175.282 988.868 181.58 975.011 194.177C961.155 206.774 950.867 223.15 944.149 243.305C937.85 263.461 934.701 285.085 934.701 308.18C934.701 334.214 938.27 358.988 945.408 382.502C952.547 405.596 963.464 424.492 978.161 439.188C992.857 453.885 1011.33 461.233 1033.59 461.233Z" fill="#DADFE3"/>
<path d="M1209.29 476.349V457.454C1222.31 457.454 1231.34 454.305 1236.37 448.006C1241.41 441.288 1244.35 432.26 1245.19 420.923C1246.03 409.166 1246.45 395.729 1246.45 380.612L1247.08 237.007C1247.08 230.288 1247.08 223.57 1247.08 216.852C1247.5 210.133 1248.34 203.205 1249.6 196.067C1242.04 196.487 1234.48 196.906 1226.93 197.326C1219.79 197.746 1212.44 198.166 1204.88 198.586V172.132C1223.36 172.132 1237.21 171.293 1246.45 169.613C1256.11 167.933 1263.25 165.834 1267.87 163.315C1272.49 160.795 1276.26 158.066 1279.2 155.126H1297.47C1297.89 158.066 1298.1 161.425 1298.1 165.204C1298.52 168.983 1298.94 173.182 1299.36 177.801C1299.78 182.42 1299.99 187.669 1299.99 193.547C1309.23 185.569 1319.3 178.431 1330.22 172.132C1341.56 165.834 1353.32 160.795 1365.49 157.016C1378.09 153.237 1390.48 151.347 1402.65 151.347C1439.19 151.347 1465.85 162.895 1482.64 185.989C1499.44 208.664 1507.84 244.145 1507.84 292.434V409.585C1507.84 417.983 1507.63 425.542 1507.21 432.26C1507.21 438.559 1506.58 445.277 1505.32 452.415C1512.04 451.995 1518.55 451.785 1524.84 451.785C1531.56 451.365 1538.28 450.946 1545 450.526V476.349H1416.51V457.454C1429.53 457.454 1438.56 454.305 1443.59 448.006C1448.63 441.288 1451.57 432.26 1452.41 420.923C1453.25 409.166 1453.67 395.729 1453.67 380.612V292.434C1453.25 256.322 1447.16 229.029 1435.41 210.553C1424.07 192.078 1406.01 183.05 1381.24 183.47C1366.12 183.89 1351.22 187.879 1336.52 195.437C1322.24 202.995 1310.28 212.653 1300.62 224.41C1301.04 227.769 1301.25 231.548 1301.25 235.747C1301.25 239.946 1301.25 244.355 1301.25 248.974L1300.62 409.585C1300.62 417.983 1300.41 425.542 1299.99 432.26C1299.99 438.559 1299.36 445.277 1298.1 452.415C1304.82 451.995 1311.33 451.785 1317.62 451.785C1324.34 451.365 1331.06 450.946 1337.78 450.526V476.349H1209.29Z" fill="#DADFE3"/>
</svg>
